<svg enable-background="new 0 0 512 512.001" height="512.001" viewBox="0 0 512 512.001" width="512" xmlns="http://www.w3.org/2000/svg"><g id="sport"><g id="boxing"/><g id="judo"/><g id="tennis"/><g id="cup"/><g id="medal"/><g id="skateboard"/><g id="target_with_arrow"/><g id="bing_bong"/><g id="bowling"/><g id="baseball"/><g id="swimming"/><g id="football"/><g id="basketball"/><g id="gym"/><g id="american_football"/></g><g id="devices"><g id="camera"/><g id="apple"/><g id="classic_camera"/><g id="computer"/><g id="ipad"/><g id="iphone"/><g id="printer"/><g id="mp3_player"/><g id="LCD_tivi"/><g id="retro_tivi"/><g id="gamepad"/><g id="ps_vista"/><g id="gameboy"/><g id="bombox"/><g id="playstation"/><g id="laptop"/><g id="smartphone"/><g id="projector"/><g id="imac"/><g id="camera_for_film"/></g><g id="chemistry_x2F__health"><g id="DNA"/><g id="different_kind_of_tubes"/><g id="radioactive"/><g id="monitor"/><g id="first_aid_kit"/><g id="needle"/><g id="microscope"><g><g><circle cx="256" cy="256.001" fill="#ddae2a" r="256"/><circle cx="256.001" cy="256.001" fill="#edc849" r="203.503"/></g><path d="m278.403 304.779v-15.01c2.203-.779 4.305-1.769 6.282-2.949l12.776 12.776c2.736 2.737 8.684 1.225 13.281-3.375 4.6-4.599 6.11-10.544 3.374-13.28l-14.326-14.329c1.384-3.78 2.139-7.867 2.139-12.126 0-.576-.017-1.148-.044-1.717.027-.338.044-.677.044-1.019v-91.028c0-6.578-5.087-12.447-13.047-16.296v-69.881c0-7.311-9.963-13.239-22.256-13.239s-22.259 5.928-22.259 13.239v69.881c-7.958 3.849-13.046 9.719-13.046 16.296v.961c-36.736-2.27-73.478 15.348-93.999 48.944-11.021 18.039-15.804 38.136-14.965 57.779-1.21 28.846 9.804 57.504 31.144 78.129l-5.814 41.911h-35.897v44.959 8.041h231.329v-8.041-44.959h-133.295l-4.529-32.666h137.824v-8.042-44.958h-64.716zm-83.951 0v18.666c-4.216-3.633-9.693-5.842-15.696-5.842-1.101 0-2.177.1-3.238.243-7.648-8.57-12.152-19.346-13.086-30.528.654-7.875 3.091-15.721 7.49-22.923 12.996-21.274 38.737-29.977 61.4-22.309v11.665c0 .342.017.681.043 1.019-.026.568-.043 1.141-.043 1.717 0 4.331.783 8.476 2.21 12.311l-14.143 14.145c-2.737 2.736-1.225 8.684 3.374 13.28 4.6 4.6 10.545 6.112 13.281 3.375l12.684-12.684c1.931 1.137 3.977 2.099 6.12 2.856v15.01h-60.396z" fill="#ddae2a"/><g><circle cx="299.628" cy="238.568" fill="#323232" r="35.304"/><path d="m144.792 372.527h231.329v44.958h-231.329z" fill="#774197"/><path d="m144.792 417.486h231.329v8.042h-231.329z" fill="#552c7a"/><path d="m245.035 388.484h.002l-.033-.257c-.063-.548-.139-1.09-.227-1.63l-9.127-65.808h-.007c-1.466-11.893-11.597-21.101-23.886-21.101-12.288 0-22.419 9.208-23.885 21.101h-.008l-9.126 65.808c-.089.54-.163 1.082-.226 1.63l-.036.257h.004c-.125 1.176-.194 2.369-.194 3.579v8.673h66.94v-8.673c.002-1.21-.066-2.403-.191-3.579z" fill="#774197"/><path d="m220.31 309.762c-24.673-15.068-32.454-47.285-17.386-71.958 15.07-24.669 47.285-32.455 71.957-17.384l36.523-59.794c-48.369-29.547-111.535-14.286-141.079 34.086-29.547 48.369-14.285 111.533 34.086 141.08z" fill="#774197"/><path d="m264.324 144.804v91.028c0 11.597 15.807 21 35.304 21 19.499 0 35.304-9.403 35.304-21v-91.028z" fill="#552c7a"/><path d="m220.31 318.435c-24.673-15.07-32.454-47.285-17.386-71.957 15.07-24.67 47.285-32.456 71.957-17.385l36.523-59.797c-48.369-29.545-111.535-14.284-141.079 34.086-29.547 48.371-14.285 111.535 34.086 141.082z" fill="#552c7a"/><g><path d="m245.228 400.736c0-1.208-.067-2.402-.192-3.578h.002l-.033-.258c-.063-.547-.139-1.089-.227-1.629l-9.127-65.81h-.007c-1.466-11.893-11.597-21.102-23.886-21.102-12.288 0-22.419 9.208-23.885 21.102h-.008l-9.126 65.81c-.089.54-.163 1.082-.226 1.629l-.036.258h.004c-.125 1.175-.194 2.369-.194 3.578z" fill="#552c7a"/><circle cx="211.758" cy="332.435" fill="#cdccca" r="10.523"/><circle cx="211.758" cy="332.435" fill="#e8e9ec" r="8.323"/></g><path d="m227.453 286.861h148.668v44.959h-148.668z" fill="#323232"/><path d="m227.453 331.82h148.668v8.041h-148.668z" fill="#494a4a"/><path d="m329.537 305.533c-2.926-7.508-14.234-13.107-27.75-13.107-13.514 0-24.822 5.6-27.75 13.107h-.742v3.839c0 9.361 12.756 16.949 28.492 16.949 15.738 0 28.495-7.588 28.495-16.949v-3.839z" fill="#cdccca"/><ellipse cx="301.789" cy="305.533" fill="#e8e9ec" rx="28.494" ry="16.95"/><g fill="#323232"><path d="m287.851 266.049v22.581c0 3.872 5.273 7.006 11.777 7.006 6.505 0 11.776-3.135 11.776-7.006v-22.581z"/><path d="m268.359 249.056-15.968 15.967c-2.737 2.739-1.225 8.684 3.374 13.283 4.6 4.6 10.545 6.11 13.281 3.373l15.969-15.968z"/><path d="m314.495 265.711 15.969 15.968c2.736 2.737 8.684 1.226 13.281-3.375 4.6-4.599 6.111-10.544 3.374-13.281l-15.968-15.969z"/></g><path d="m319.026 253.375c3.604-1.413 6.745-3.209 9.264-5.29v-103.281h-9.264z" fill="#774197"/><path d="m310.036 255.904c2.273-.418 4.448-.967 6.5-1.635v-96.224h-6.5z" fill="#774197"/><path d="m264.324 144.804c0-11.595 15.807-21 35.304-21 19.499 0 35.304 9.405 35.304 21 0 11.598-15.805 21-35.304 21-19.497 0-35.304-9.402-35.304-21z" fill="#774197"/><ellipse cx="299.627" cy="144.804" fill="#323232" rx="22.258" ry="13.238"/><path d="m277.369 58.629h44.517v86.175h-44.517z" fill="#323232"/><ellipse cx="299.627" cy="58.629" fill="#494a4a" rx="22.258" ry="13.241"/><ellipse cx="299.628" cy="58.629" fill="#323232" rx="15.001" ry="8.924"/></g></g></g><g id="plaster"/><g id="experiment"/><g id="pill"/><g id="blood"/><g id="molecular"/><g id="gen"/><g id="t&#xE9;t_tube"/><g id="stethoscope"/></g><g id="others"><g id="book"/><g id="key"/><g id="box"/><g id="bell"/><g id="suitcase"/><g id="chess_game"/><g id="website_with_cretificate"/><g id="spider_with_eye"/><g id="imac_with__x3C__x2F__x3E_"/><g id="macbook_with_graph"/><g id="envelope_with_letter"/><g id="smartphone_with_mail_icon"/><g id="smartphone_with_setting_icon"/><g id="_x2C_aptop_with_setting_icon"/><g id="plant"/><g id="toaster"/><g id="telescope"/><g id="rocket"/><g id="bomb"/><g id="mail_box"/></g><g id="food"><g id="hamburger"/><g id="coffee_take_away"/><g id="cherry"/><g id="strawberry"/><g id="hotdog"/><g id="sushi"/><g id="tea"/><g id="water_with_ice"/><g id="wine"/><g id="coca"/><g id="ice_cream1"/><g id="knife_&#x1B0;ith_fork"/><g id="meat"/><g id="cheese"/><g id="fish"/><g id="carrot"/><g id="tomato"/><g id="beer"/><g id="egg"/><g id="ice_cream2"/></g><g id="users"><g id="male"/><g id="female"/><g id="male_with_chat_box"/><g id="male_with_mail"/><g id="male_with_keyboard"/><g id="male_with_headphone"/><g id="male_with_tearm"/><g id="male_with_plus"/><g id="male_with_minus"/><g id="female_with_magnifier"/></g><g id="money_x2F_shopping_x2F_b&#xFA;iness"><g id="wallet"/><g id="coins"/><g id="laptop_with__x24__x24__x24_"/><g id="smartphone_with__x24_"/><g id="coin_with_clock"/><g id="bag_empty"/><g id="bag_full"/><g id="gift"/><g id="gold_bar"/><g id="hand_with__x24_"/><g id="magnifier_with__x24_"/><g id="megaphone_with__x24_"/><g id="piggy_bank"/><g id="calculator"/><g id="bag_with__x24_"/><g id="safe"/><g id="man_with__x24_"/><g id="credit_card"/><g id="tree_with__x24_"/><g id="balance_with__x24_"/></g><g id="season"><g id="spring"/><g id="summer"/><g id="autumn"/><g id="winter"/><g id="cloud_with_rain"/><g id="sun_with_cloud"/><g id="cloud_with_lightning"/><g id="cloud_with_snow"/><g id="snow"/><g id="moon"/></g><g id="landscape"><g id="mountain"/><g id="desert"/><g id="island"/><g id="sea"/><g id="water_fall"/><g id="lighthouse"/><g id="forest"/><g id="city"/><g id="arctic"/><g id="road"/></g><g id="creative_x2F_design"><g id="pallete"/><g id="bucket"/><g id="cup_with_pen"/><g id="pencil"/><g id="wacom"/><g id="ruler"/><g id="pen"/><g id="rollet_paper"/><g id="colors"/><g id="light_bulb"/><g id="standee_for_painter"/><g id="vector_with_arrow"/><g id="spray_paint"/><g id="adobe_illustrator"/><g id="adobe_ph&#x1ED1;thop"/><g id="&#x1EBB;aser"/><g id="paint_brush"/><g id="sketbook_with_pencil"/><g id="picture_frame"/><g id="compa"/></g></svg>